<svg width="584" height="604" viewBox="0 0 584 604" fill="none" xmlns="http://www.w3.org/2000/svg">
<g clip-path="url(#clip0_862_42)">
<path d="M244 70V103" stroke="#0D6EFD" stroke-width="3" stroke-linecap="round"/>
<path d="M265 69V103" stroke="#0D6EFD" stroke-width="3" stroke-linecap="round"/>
<path d="M287 69.5V104" stroke="#0D6EFD" stroke-width="3" stroke-linecap="round"/>
<path d="M308 69.5V104" stroke="#0D6EFD" stroke-width="3" stroke-linecap="round"/>
<path d="M328.5 70V104" stroke="#0D6EFD" stroke-width="3" stroke-linecap="round"/>
<path d="M241 105.5V126C241 126.552 241.448 127 242 127H334C334.552 127 335 126.552 335 126V105.5C335 104.948 334.552 104.5 334 104.5H242C241.448 104.5 241 104.948 241 105.5Z" fill="#0D6EFD" stroke="#0D6EFD" stroke-width="3" stroke-linecap="round"/>
<path d="M330.165 68H243.394C242.506 68 242.059 66.9287 242.683 66.297L283.288 25.2149C283.426 25.0748 283.52 24.8968 283.558 24.7034L287.402 5.00301C287.423 4.89522 287.577 4.89522 287.598 5.00302L291.444 24.713C291.481 24.9004 291.57 25.0734 291.702 25.2116L330.889 66.3099C331.495 66.9464 331.044 68 330.165 68Z" fill="#0D6EFD" stroke="#0D6EFD" stroke-width="3" stroke-linecap="round"/>
<path d="M231 129.997V142.24C231 142.792 231.448 143.238 232 143.238H283.58C284.132 143.238 284.58 143.686 284.58 144.238V150.549C284.58 151.25 285.281 151.733 285.936 151.484L339.918 130.935C340.956 130.54 340.673 129 339.562 129H232C231.448 129 231 129.445 231 129.997Z" fill="#0D6EFD" stroke="#0D6EFD" stroke-width="3" stroke-linecap="round"/>
<path d="M303 419.5H280.5C279.948 419.5 279.5 419.052 279.5 418.5V388C279.5 384 285.6 379 292 379C298.4 379 304 384.5 304 388V418.5C304 419.052 303.552 419.5 303 419.5Z" fill="#0D6EFD" stroke="#0D6EFD" stroke-width="6" stroke-linecap="round"/>
<path d="M301 238H282C281.448 238 281 237.552 281 237V210C281 206.444 286.229 202 291.714 202C297.2 202 302 206.889 302 210V237C302 237.552 301.552 238 301 238Z" fill="#0D6EFD" stroke="#0D6EFD" stroke-width="6" stroke-linecap="round"/>
<path d="M249 599.5H334.5" stroke="#0D6EFD" stroke-width="6" stroke-linecap="round"/>
<path d="M186.5 579H396" stroke="#0D6EFD" stroke-width="6" stroke-linecap="round"/>
<path d="M126 557H457" stroke="#0D6EFD" stroke-width="6" stroke-linecap="round"/>
<path d="M66 537H517.5" stroke="#0D6EFD" stroke-width="6" stroke-linecap="round"/>
<path d="M194.002 512.118V530.5C194.002 531.052 194.45 531.5 195.002 531.5H389.325C389.942 531.5 390.411 530.947 390.312 530.338L371.255 414.055C371.136 413.332 370.329 412.961 369.724 413.374C324.677 444.064 234.757 491.104 194.537 511.233C194.198 511.402 194.002 511.739 194.002 512.118Z" fill="#0D6EFD" stroke="#0D6EFD" stroke-width="6" stroke-linecap="round"/>
<path d="M240.917 163.714L236.721 199.611C236.627 200.411 237.451 200.997 238.161 200.618C266.408 185.564 318.586 154.808 342.028 140.782C342.33 140.602 342.5 140.285 342.5 139.933V130.524C342.5 129.804 341.758 129.322 341.097 129.606C297.116 148.544 257.061 159.534 241.684 162.854C241.264 162.945 240.966 163.287 240.917 163.714Z" fill="#0D6EFD" stroke="#0D6EFD" stroke-width="6" stroke-linecap="round"/>
<path d="M218.938 318.552L210.706 392.156C210.618 392.947 211.424 393.529 212.133 393.166C255.997 370.693 325.418 329.574 355.494 311.307C355.815 311.112 355.983 310.764 355.955 310.389L351.129 245.247C351.072 244.475 350.207 244.051 349.57 244.49C307.828 273.257 245.961 305.085 219.484 317.769C219.172 317.918 218.977 318.209 218.938 318.552Z" fill="#0D6EFD" stroke="#0D6EFD" stroke-width="6" stroke-linecap="round"/>
<path d="M322.748 62.0735L291.639 29.686C291.12 29.1453 290.21 29.3476 289.952 30.0515C287.798 35.9256 285.297 40.4451 285.024 43.8967C284.995 44.2675 285.206 44.6081 285.536 44.7807L321.563 63.6521C322.567 64.1781 323.534 62.8911 322.748 62.0735Z" fill="white" stroke="white" stroke-width="3" stroke-linecap="round"/>
<path d="M332.424 106.026C331.644 106.027 328.634 106.026 326.661 106.026C325.922 106.025 325.441 106.803 325.754 107.473C331.226 119.157 331.944 127.378 332.424 124.418C333.019 120.753 333.494 106.025 332.424 106.026Z" fill="white" stroke="white" stroke-width="3" stroke-linecap="round"/>
<path d="M346.5 248.5C344.431 248.5 337.582 254.298 333.871 256.342C333.146 256.742 332.715 257.995 333.187 258.675C346.711 278.143 350.36 314.882 351.5 307C352.896 297.354 351.829 248.499 346.5 248.5Z" fill="white" stroke="white" stroke-width="3" stroke-linecap="round"/>
<path d="M366.484 420C364.114 420.001 352.783 428.304 349.48 432.356C349.182 432.722 349.224 433.226 349.545 433.572C371.643 457.34 380.336 538.835 381.496 524.5C382.888 507.304 371.797 419.999 366.484 420Z" fill="white" stroke="white" stroke-width="3" stroke-linecap="round"/>
</g>
<defs>
<clipPath id="clip0_862_42">
<rect width="584" height="604" fill="white"/>
</clipPath>
</defs>
</svg>
